<?xml version="1.0"?>
<svg xmlns="http://www.w3.org/2000/svg" height="512px" viewBox="0 -10 511.99912 511" width="512px"><path d="m472.039062 240.25-12.207031-105.375c47.714844-34.578125 67.496094-92.605469 38.917969-121.183594-12.203125-12.203125-31.273438-16.183594-52.316406-10.921875-18.640625 4.660157-37.757813 16.078125-53.828125 32.148438-.195313.199219-.382813.402343-.578125.597656l-141.070313-16.34375-250.957031 250.960937 221.078125 221.078126zm-18.324218-208.355469c10.566406-2.640625 19.242187-1.539062 23.804687 3.023438 11.109375 11.109375.933594 41.914062-21.820312 64.300781l-3.496094-30.175781-24.558594-24.558594c8.570313-6.066406 17.585938-10.46875 26.070313-12.589844zm-191.792969 18.773438 108.941406 12.621093c-4.582031 8.089844-8.035156 16.394532-10.179687 24.625l-10.535156-10.535156-21.226563 21.226563 63.683594 63.6875 21.230469-21.230469-21.230469-21.226562c-4.5625-4.5625-5.664063-13.238282-3.023438-23.804688 2.355469-9.421875 7.519531-19.492188 14.652344-28.878906l4.097656.476562 15.253907 15.253906 16.960937 146.40625-219.46875 219.464844-178.621094-178.621094zm0 0" fill="#FFFFFF"/><path d="m165.722656 211.617188c-24.828125 0-45.03125 20.203124-45.03125 45.035156 0 24.828125 20.203125 45.03125 45.03125 45.03125 24.832032 0 45.035156-20.203125 45.035156-45.03125 0-24.832032-20.203124-45.035156-45.035156-45.035156zm0 60.042968c-8.277344 0-15.007812-6.734375-15.007812-15.007812 0-8.277344 6.730468-15.011719 15.007812-15.011719s15.011719 6.734375 15.011719 15.011719c0 8.273437-6.730469 15.007812-15.011719 15.007812zm0 0" fill="#FFFFFF"/><path d="m315.832031 301.683594c24.832031 0 45.035157-20.203125 45.035157-45.03125 0-24.832032-20.203126-45.035156-45.035157-45.035156s-45.03125 20.203124-45.03125 45.035156c0 24.828125 20.199219 45.03125 45.03125 45.03125zm0-60.042969c8.277344 0 15.011719 6.734375 15.011719 15.011719 0 8.273437-6.734375 15.007812-15.011719 15.007812-8.277343 0-15.011719-6.734375-15.011719-15.007812 0-8.277344 6.734376-15.011719 15.011719-15.011719zm0 0" fill="#FFFFFF"/><path d="m240.984375 164.121094 29.613281 4.933594-30.023437 180.132812-29.613281-4.9375zm0 0" fill="#FFFFFF"/></svg>
