<?xml version="1.0" encoding="utf-8"?>
<!-- Generator: Adobe Illustrator 22.0.1, SVG Export Plug-In . SVG Version: 6.00 Build 0)  -->
<svg version="1.1" id="Layer_1" xmlns="http://www.w3.org/2000/svg" xmlns:xlink="http://www.w3.org/1999/xlink" x="0px" y="0px"
	 viewBox="0 0 419 178" style="enable-background:new 0 0 419 178;" xml:space="preserve">
<style type="text/css">
	.st0{fill:url(#SVGID_2_);}
	.st1{fill:url(#SVGID_3_);}
	.st2{fill:url(#SVGID_5_);}
	.st3{fill:url(#SVGID_6_);}
	.st4{fill:url(#SVGID_8_);}
	.st5{fill:url(#SVGID_9_);}
	.st6{fill:url(#SVGID_11_);}
	.st7{fill:url(#SVGID_12_);}
	.st8{fill:url(#SVGID_14_);}
	.st9{fill:url(#SVGID_15_);}
</style>
<g>
	<g>
		<g>
			<g>
				<g>
					
						<radialGradient id="SVGID_2_" cx="70.1836" cy="258.2217" r="512.0785" gradientTransform="matrix(1 0 0 -1 0 182)" gradientUnits="userSpaceOnUse">
						<stop  offset="0" style="stop-color:#00B1E7"/>
						<stop  offset="0.427" style="stop-color:#0098CD"/>
						<stop  offset="0.5244" style="stop-color:#008DBE"/>
						<stop  offset="0.8403" style="stop-color:#006C91"/>
						<stop  offset="1" style="stop-color:#005F80"/>
					</radialGradient>
					<path id="SVGID_1_" class="st0" d="M232.5,75V64.9c0,0-0.5-7.9-8.8-7.9h-12.9v18h-13.2V23h32c0,0,16.7-2,16.7,15.2
						c0,9-7.4,12.1-7.4,12.1s6.4,3,6.4,11.8V75L232.5,75 M210.8,44.8h13.6c4,0,7.2-2.2,7.2-4.9c0-2.7-3.3-4.9-7.2-4.9h-13.6
						L210.8,44.8L210.8,44.8"/>
				</g>
			</g>
			<g>
				<g>
					
						<radialGradient id="SVGID_3_" cx="70.2017" cy="258.2222" r="512.044" gradientTransform="matrix(1 0 0 -1 0 182)" gradientUnits="userSpaceOnUse">
						<stop  offset="0" style="stop-color:#00B1E7"/>
						<stop  offset="0.427" style="stop-color:#0098CD"/>
						<stop  offset="0.5244" style="stop-color:#008DBE"/>
						<stop  offset="0.8403" style="stop-color:#006C91"/>
						<stop  offset="1" style="stop-color:#005F80"/>
					</radialGradient>
					<path id="SVGID_4_" class="st1" d="M388.2,75l-20.9-34.8V75h-11.4h-2.1h-12.4l-4.7-10.9h-24.1L308.1,75h-12.1h-2.2h-6.3
						c0,0-17.8-2.5-17.8-24.5c0-28.9,20.2-27.7,20.9-27.9l16.3,0.4v11.7l-13.4,0.2c0,0-8.7,0-9.8,11.4c-0.1,1.3-0.2,2.5-0.2,3.6
						c0,17.6,15.3,12.1,15.8,12L315.6,23H334l19.8,47.2V23h18.7l20.7,34.2V23h13.3v52H388.2 M318.3,50.8h12.8l-6.3-15.5L318.3,50.8
						L318.3,50.8"/>
				</g>
			</g>
			<g>
				<g>
					
						<radialGradient id="SVGID_5_" cx="70.2026" cy="258.2144" r="512.0485" gradientTransform="matrix(1 0 0 -1 0 182)" gradientUnits="userSpaceOnUse">
						<stop  offset="0" style="stop-color:#00B1E7"/>
						<stop  offset="0.427" style="stop-color:#0098CD"/>
						<stop  offset="0.5244" style="stop-color:#008DBE"/>
						<stop  offset="0.8403" style="stop-color:#006C91"/>
						<stop  offset="1" style="stop-color:#005F80"/>
					</radialGradient>
					<path id="SVGID_7_" class="st2" d="M128.9,75V39.1L112.4,75h-10.8L84.9,39.3V75H73.4h-1.8H58.9l-4.6-10.9H30.2L25.5,75H11.1
						L33,23h18.6l20.1,47.8V23h20.9L107,55.3L121.5,23h20.9v52H128.9 M35.8,50.8h12.8l-6.4-15.5L35.8,50.8L35.8,50.8"/>
				</g>
			</g>
			<g>
				<g>
					
						<radialGradient id="SVGID_6_" cx="70.1743" cy="258.2144" r="512.0867" gradientTransform="matrix(1 0 0 -1 0 182)" gradientUnits="userSpaceOnUse">
						<stop  offset="0" style="stop-color:#00B1E7"/>
						<stop  offset="0.427" style="stop-color:#0098CD"/>
						<stop  offset="0.5244" style="stop-color:#008DBE"/>
						<stop  offset="0.8403" style="stop-color:#006C91"/>
						<stop  offset="1" style="stop-color:#005F80"/>
					</radialGradient>
					<polyline id="SVGID_10_" class="st3" points="149.6,75 149.6,23 190.8,23 190.8,35.2 162.9,35.2 162.9,43.2 190.1,43.2 
						190.1,55 162.9,55 162.9,63.8 190.8,63.8 190.8,75 149.6,75 					"/>
				</g>
			</g>
			<g>
				<g>
					
						<radialGradient id="SVGID_8_" cx="70.1943" cy="258.2119" r="512.0569" gradientTransform="matrix(1 0 0 -1 0 182)" gradientUnits="userSpaceOnUse">
						<stop  offset="0" style="stop-color:#00B1E7"/>
						<stop  offset="0.427" style="stop-color:#0098CD"/>
						<stop  offset="0.5244" style="stop-color:#008DBE"/>
						<stop  offset="0.8403" style="stop-color:#006C91"/>
						<stop  offset="1" style="stop-color:#005F80"/>
					</radialGradient>
					<polyline id="SVGID_13_" class="st4" points="251.9,75.2 251.9,23 265.1,23 265.1,75.2 251.9,75.2 					"/>
				</g>
			</g>
		</g>
		<g>
			<g>
				<g>
					
						<radialGradient id="SVGID_9_" cx="20.1943" cy="258.2144" r="512.0429" gradientTransform="matrix(1 0 0 -1 0 182)" gradientUnits="userSpaceOnUse">
						<stop  offset="0" style="stop-color:#00B1E7"/>
						<stop  offset="0.427" style="stop-color:#0098CD"/>
						<stop  offset="0.5244" style="stop-color:#008DBE"/>
						<stop  offset="0.8403" style="stop-color:#006C91"/>
						<stop  offset="1" style="stop-color:#005F80"/>
					</radialGradient>
					<path id="SVGID_16_" class="st5" d="M233.4,163.2v-10.1c0,0-0.5-7.9-8.8-7.9h-12.8v18h-13.2v-52h32c0,0,16.7-2,16.7,15.2
						c0,9-7.4,12.1-7.4,12.1s6.3,3,6.3,11.8v12.9L233.4,163.2 M211.8,132.9h13.6c4,0,7.2-2.2,7.2-4.9c0-2.7-3.3-4.9-7.2-4.9h-13.6
						V132.9L211.8,132.9"/>
				</g>
			</g>
			<g>
				<g>
					
						<radialGradient id="SVGID_11_" cx="20.2002" cy="258.229" r="512.0732" gradientTransform="matrix(1 0 0 -1 0 182)" gradientUnits="userSpaceOnUse">
						<stop  offset="0" style="stop-color:#00B1E7"/>
						<stop  offset="0.427" style="stop-color:#0098CD"/>
						<stop  offset="0.5244" style="stop-color:#008DBE"/>
						<stop  offset="0.8403" style="stop-color:#006C91"/>
						<stop  offset="1" style="stop-color:#005F80"/>
					</radialGradient>
					<path id="SVGID_19_" class="st6" d="M145.4,163.1h-11.5l-14-15.4l-14.1,15.4h-8H56.8V111h41.1h7l15.1,16.5l15.2-16.5h10.1V111
						h32c0,0,16.7-1.9,16.7,15.3c0,15.3-5.5,20.1-22.6,20.1h-12.9v16.7L145.4,163.1 M128.9,137.5l16.4,18.1v-36.2L128.9,137.5
						L128.9,137.5 M70,151.8h27.8l13-14.3l-13-14.3H70v8h27.1V143H70V151.8L70,151.8 M158.5,132.8h13.6c4,0,7.2-2.2,7.2-4.9
						c0-2.7-3.3-4.9-7.2-4.9h-13.6V132.8L158.5,132.8"/>
				</g>
			</g>
			<g>
				<g>
					
						<radialGradient id="SVGID_12_" cx="20.2031" cy="258.209" r="512.0401" gradientTransform="matrix(1 0 0 -1 0 182)" gradientUnits="userSpaceOnUse">
						<stop  offset="0" style="stop-color:#00B1E7"/>
						<stop  offset="0.427" style="stop-color:#0098CD"/>
						<stop  offset="0.5244" style="stop-color:#008DBE"/>
						<stop  offset="0.8403" style="stop-color:#006C91"/>
						<stop  offset="1" style="stop-color:#005F80"/>
					</radialGradient>
					<path id="SVGID_22_" class="st7" d="M323.4,163h-23.5v-12h20.6c0,0,7.4,0.9,7.4-4.1c0-4.7-11.2-4.3-11.2-4.3
						s-18.2,1.6-18.2-15.5c0-17,16.4-16,16.4-16h25.3v12.1h-20.4c0,0-7-1.4-7,3.7c0,4.3,9.6,3.7,9.6,3.7s20.2-1.5,20.2,14.2
						c0,16.8-13,18.3-17.6,18.3C324,163.1,323.4,163,323.4,163"/>
				</g>
			</g>
			<g>
				<g>
					
						<radialGradient id="SVGID_14_" cx="20.1929" cy="258.2178" r="512.0659" gradientTransform="matrix(1 0 0 -1 0 182)" gradientUnits="userSpaceOnUse">
						<stop  offset="0" style="stop-color:#00B1E7"/>
						<stop  offset="0.427" style="stop-color:#0098CD"/>
						<stop  offset="0.5244" style="stop-color:#008DBE"/>
						<stop  offset="0.8403" style="stop-color:#006C91"/>
						<stop  offset="1" style="stop-color:#005F80"/>
					</radialGradient>
					<polyline id="SVGID_25_" class="st8" points="252.8,163.1 252.8,111.2 294,111.2 294,123.2 266.1,123.2 266.1,131.2 
						293.3,131.2 293.3,143 266.1,143 266.1,151.8 294,151.8 294,163.1 252.8,163.1 					"/>
				</g>
			</g>
			<g>
				<g>
					
						<radialGradient id="SVGID_15_" cx="20.2041" cy="258.209" r="512.0272" gradientTransform="matrix(1 0 0 -1 0 182)" gradientUnits="userSpaceOnUse">
						<stop  offset="0" style="stop-color:#00B1E7"/>
						<stop  offset="0.427" style="stop-color:#0098CD"/>
						<stop  offset="0.5244" style="stop-color:#008DBE"/>
						<stop  offset="0.8403" style="stop-color:#006C91"/>
						<stop  offset="1" style="stop-color:#005F80"/>
					</radialGradient>
					<path id="SVGID_28_" class="st9" d="M370,163h-23.5v-12H367c0,0,7.5,0.9,7.5-4.1c0-4.7-11.2-4.3-11.2-4.3s-18.2,1.6-18.2-15.5
						c0-17,16.4-16,16.4-16h25.3v12.1h-20.3c0,0-7-1.4-7,3.7c0,4.3,9.6,3.7,9.6,3.7s20.1-1.5,20.1,14.2c0,16.8-13,18.3-17.6,18.3
						C370.6,163.1,370,163,370,163"/>
				</g>
			</g>
		</g>
	</g>
</g>
</svg>
