<?xml version="1.0" encoding="utf-8"?>
<!-- Generator: Adobe Illustrator 22.0.1, SVG Export Plug-In . SVG Version: 6.00 Build 0)  -->
<svg version="1.1"
	 id="svg2985" inkscape:version="0.91 r13725" sodipodi:docname="MasterCard_early_1990s_logo.svg" xmlns:cc="http://creativecommons.org/ns#" xmlns:dc="http://purl.org/dc/elements/1.1/" xmlns:inkscape="http://www.inkscape.org/namespaces/inkscape" xmlns:rdf="http://www.w3.org/1999/02/22-rdf-syntax-ns#" xmlns:sodipodi="http://sodipodi.sourceforge.net/DTD/sodipodi-0.dtd" xmlns:svg="http://www.w3.org/2000/svg"
	 xmlns="http://www.w3.org/2000/svg" xmlns:xlink="http://www.w3.org/1999/xlink" x="0px" y="0px" viewBox="0 0 238.2 144.2"
	 style="enable-background:new 0 0 238.2 144.2;" xml:space="preserve">
<style type="text/css">
	.st0{fill:#FF0018;}
	.st1{fill:#FFAA18;}
	.st2{fill:#FFFFFF;}
</style>
<sodipodi:namedview  bordercolor="#666666" borderopacity="1" fit-margin-bottom="0" fit-margin-left="0" fit-margin-right="0" fit-margin-top="0" gridtolerance="10" guidetolerance="10" id="namedview2987" inkscape:current-layer="svg2985" inkscape:cx="169.58914" inkscape:cy="328.16526" inkscape:object-paths="false" inkscape:pageopacity="0" inkscape:pageshadow="2" inkscape:window-height="705" inkscape:window-maximized="1" inkscape:window-width="1366" inkscape:window-x="-8" inkscape:window-y="-8" inkscape:zoom="0.49176063" objecttolerance="10" pagecolor="#ffffff" showgrid="false">
	</sodipodi:namedview>
<g id="g3478" transform="translate(-21.53125,-20.125)">
	<g id="g3456">
		<g id="g3159">
			<path id="path3086" inkscape:connector-curvature="0" class="st0" d="M90.2,20.1c-37.9,0-68.7,30.6-68.7,68.3
				s30.7,68.3,68.7,68.3c17.5,0,33.5-6.5,45.7-17.3c1-0.9,1.9-1.7,2.8-2.6c0.3-0.3,0.6-0.6,0.9-0.9h-7.4c0.3,0.3,0.6,0.6,0.9,0.9
				c-0.3-0.3-0.6-0.6-0.9-0.9c-1.3-1.3-2.6-2.7-3.8-4.2c-0.3-0.3-0.5-0.6-0.8-1c0.3,0.3,0.5,0.6,0.8,1h15c1.1-1.3,2.1-2.6,3-4h-21
				c0.5,0.7,1,1.4,1.5,2c-0.5-0.7-1-1.3-1.5-2c-1.2-1.7-2.3-3.4-3.3-5.1c-1.3-2.3-2.5-4.7-3.6-7.1c-0.3-0.7-0.6-1.3-0.8-2
				c-0.3-0.7-0.5-1.4-0.8-2.1c-0.5-1.4-1-2.8-1.4-4.2h40.8c0.4-1.3,0.7-2.7,1-4.1h-42.9c0.2,1,0.5,2.1,0.8,3.1c-0.3-1-0.5-2-0.8-3.1
				c-0.4-2-0.8-4.1-1.1-6.2c0-0.2-0.1-0.4-0.1-0.6c0,0.2,0,0.4,0.1,0.6c0.1,0.7,0.2,1.3,0.3,2h44.4c0.2-1.3,0.4-2.6,0.5-4h-45.4
				c-0.1-1.4-0.2-2.8-0.3-4.2c0-0.4,0-0.8,0-1.2c0-0.4,0-0.8,0-1.2c0,0.4,0,0.8,0,1.2c0,0.4,0,0.8,0,1.2h46c0-0.3,0-0.7,0-1
				c0,0,0-0.1,0-0.1c0,0,0,0,0,0c0-0.4,0-0.7,0-1.1c0-0.6,0-1.3,0-1.9c-0.1-2.3-0.3-4.6-0.5-6.9h-44.9c-0.2,1.4-0.3,2.9-0.4,4.4
				c0,0.4,0,0.7-0.1,1.1c0,0.3,0,0.6,0,0.9c0-0.3,0-0.6,0-0.9c0-0.4,0-0.7,0.1-1.1c0.3-4.3,1-8.6,2-12.6c0.4-1.4,0.8-2.8,1.2-4.2
				c0.1-0.3,0.2-0.7,0.3-1c0.1-0.3,0.2-0.6,0.3-1c-0.1,0.3-0.2,0.6-0.3,1c-0.1,0.3-0.2,0.7-0.3,1h39.2c-0.4-1.3-0.9-2.6-1.4-3.9
				h-36.5c-0.1,0.3-0.2,0.6-0.4,1c0.1-0.3,0.2-0.6,0.4-1c0.6-1.4,1.2-2.8,1.8-4.2c0.2-0.4,0.4-0.8,0.6-1.1c0.2-0.4,0.4-0.7,0.6-1.1
				c-0.2,0.4-0.4,0.7-0.6,1.1c-0.2,0.4-0.4,0.7-0.6,1.1h32.8c-0.2-0.5-0.5-1-0.8-1.5c-0.1-0.2-0.2-0.5-0.4-0.7
				c0-0.1-0.1-0.1-0.1-0.2c0-0.1-0.1-0.1-0.1-0.2c-0.2-0.3-0.4-0.7-0.6-1c-0.1-0.3-0.3-0.5-0.4-0.8h-28.1c0.8-1.4,1.7-2.8,2.6-4.2
				c0.2-0.3,0.4-0.6,0.7-1c0.2-0.3,0.4-0.6,0.7-0.9c0.5-0.6,0.9-1.2,1.4-1.8c1.1-1.4,2.3-2.8,3.5-4.2h10.4c-0.4-0.5-0.8-0.9-1.3-1.3
				c-1.3-1.3-2.6-2.6-4-3.8C123.7,26.7,107.7,20.1,90.2,20.1z M127.1,46.7c-0.5,0.6-0.9,1.2-1.4,1.8c-0.2,0.3-0.4,0.6-0.7,0.9
				s-0.4,0.6-0.7,1h22.9c-0.9-1.3-1.8-2.5-2.7-3.7H127.1z M115,71.3c-0.3,1.3-0.7,2.7-0.9,4.1h43.6c-0.3-1.4-0.6-2.7-0.9-4.1H115z
				 M116.8,111.4c0.2,0.7,0.5,1.4,0.8,2.1s0.6,1.4,0.8,2h34.8c0.6-1.3,1.1-2.7,1.6-4.1H116.8z M122,122.5c0.2,0.3,0.4,0.6,0.6,0.9
				h26.5c0.8-1.3,1.5-2.5,2.2-3.9h-30.8C120.9,120.6,121.5,121.6,122,122.5z M142.1,43.7c0.2,0.2,0.3,0.4,0.5,0.6
				C142.4,44,142.2,43.9,142.1,43.7z M147.9,51.4c0.1,0.2,0.3,0.4,0.4,0.6C148.2,51.8,148.1,51.6,147.9,51.4z M148.9,52.9
				c0.1,0.2,0.2,0.4,0.4,0.6C149.1,53.3,149,53.1,148.9,52.9z M152.7,60c0.1,0.3,0.2,0.5,0.4,0.8C152.9,60.5,152.8,60.2,152.7,60z
				 M150.7,120.8c-0.1,0.1-0.2,0.3-0.2,0.4C150.5,121.1,150.6,121,150.7,120.8z M148.3,124.8c-0.1,0.2-0.2,0.4-0.4,0.6
				C148.1,125.2,148.2,125,148.3,124.8z M142.6,132.6c-0.2,0.2-0.3,0.4-0.5,0.6C142.2,133,142.4,132.8,142.6,132.6z M141.5,133.8
				c-0.2,0.2-0.4,0.4-0.6,0.7C141.1,134.2,141.3,134,141.5,133.8z M140.2,135.3c-0.2,0.2-0.3,0.3-0.5,0.5
				C139.8,135.6,140,135.4,140.2,135.3z"/>
			<path id="path3155" inkscape:connector-curvature="0" class="st1" d="M181.5,20.1c-17.5,0-33.5,6.5-45.7,17.3
				c1.8,1.6,3.6,3.3,5.2,5.1h-10.4c-1.2,1.3-2.4,2.7-3.5,4.2h17.5c0.9,1.2,1.8,2.5,2.7,3.7h-22.9c-0.9,1.4-1.8,2.8-2.6,4.2h28.1
				c0.8,1.4,1.6,2.9,2.3,4.4h-32.8c-0.7,1.4-1.3,2.8-1.8,4.2h36.5c0.5,1.3,1,2.6,1.4,3.9h-39.2c-0.9,2.7-1.6,5.5-2.2,8.3
				c0.3-1.4,0.6-2.7,0.9-4.1h41.7c0.3,1.3,0.7,2.7,0.9,4.1h-43.6c-0.3,1.7-0.6,3.5-0.8,5.3c0-0.4,0.1-0.7,0.1-1.1h44.9
				c0.4,2.9,0.6,5.8,0.6,8.8c0,0.8,0,1.6,0,2.3h-46c0,1.4,0.1,2.8,0.3,4.2h45.4c-0.1,1.3-0.3,2.7-0.5,4h-44.4
				c0.2,1.4,0.5,2.8,0.8,4.2h42.9c-0.3,1.4-0.6,2.7-1,4.1h-40.8c0.4,1.4,0.9,2.8,1.4,4.2h38.1c-0.5,1.4-1,2.7-1.6,4.1h-34.8
				c1.2,2.8,2.6,5.5,4.2,8.1c-0.8-1.3-1.5-2.5-2.2-3.9h30.8c-0.7,1.3-1.4,2.6-2.2,3.9h-26.5c0.9,1.4,1.8,2.8,2.7,4.2h21
				c-1,1.4-2,2.7-3,4h-15c1.2,1.4,2.4,2.9,3.8,4.2h7.4c-1.2,1.2-2.4,2.4-3.7,3.6c12.1,10.7,28.1,17.3,45.7,17.3
				c37.9,0,68.7-30.6,68.7-68.3S219.4,20.1,181.5,20.1z M125.3,127.7c0.2,0.3,0.5,0.7,0.7,1C125.8,128.4,125.6,128,125.3,127.7z
				 M118.4,115.4c-0.6-1.3-1.1-2.7-1.6-4.1C117.3,112.7,117.9,114.1,118.4,115.4z M112.9,90.7c0-0.4,0-0.8,0-1.2
				C112.9,90,112.9,90.3,112.9,90.7z M112.8,89.6c0-0.4,0-0.8,0-1.2C112.8,88.8,112.8,89.2,112.8,89.6z M113.3,80.7
				c-0.1,0.7-0.2,1.5-0.2,2.2C113.1,82.1,113.2,81.4,113.3,80.7z M113.1,82.9c0,0.3,0,0.6-0.1,0.8C113,83.4,113,83.2,113.1,82.9z
				 M116.2,67.1c0.1-0.3,0.2-0.7,0.3-1C116.5,66.5,116.3,66.8,116.2,67.1z M117.6,63.3c-0.1,0.3-0.2,0.5-0.3,0.8
				C117.4,63.8,117.5,63.5,117.6,63.3z M124.4,50.5c0.2-0.3,0.4-0.6,0.7-1C124.8,49.8,124.6,50.2,124.4,50.5z M125.1,49.5
				c0.2-0.3,0.4-0.6,0.7-0.9C125.5,48.9,125.3,49.2,125.1,49.5z M120.6,56.9c-0.2,0.3-0.3,0.7-0.5,1
				C120.2,57.5,120.4,57.2,120.6,56.9z M117.2,64.4c-0.1,0.3-0.2,0.6-0.3,0.8C117,64.9,117.1,64.7,117.2,64.4z M112.9,85.1
				c0,0.4,0,0.7,0,1.1C112.9,85.8,112.9,85.4,112.9,85.1z M113.4,96.9c0,0.2,0.1,0.4,0.1,0.6C113.4,97.3,113.4,97.1,113.4,96.9z
				 M114.4,103.1c0.1,0.3,0.2,0.7,0.2,1C114.6,103.8,114.5,103.5,114.4,103.1z M114.9,105.1c0.1,0.3,0.2,0.7,0.3,1
				C115.1,105.8,115,105.5,114.9,105.1z M132.2,135.9c0.3,0.3,0.5,0.6,0.8,0.8C132.8,136.5,132.5,136.2,132.2,135.9z"/>
		</g>
	</g>
	<g id="g3463">
		<g id="g3340">
		</g>
		<g id="g3445" transform="translate(0,-125.06085)">
			<path id="path3447" inkscape:connector-curvature="0" class="st2" d="M242.6,224.6c0.5,0,1.1,0.1,1.6,0.4
				c0.5,0.3,0.9,0.7,1.2,1.2c0.3,0.5,0.4,1.1,0.4,1.6c0,0.6-0.1,1.1-0.4,1.6c-0.3,0.5-0.7,0.9-1.2,1.2c-0.5,0.3-1.1,0.4-1.6,0.4
				c-0.6,0-1.1-0.1-1.6-0.4c-0.5-0.3-0.9-0.7-1.2-1.2c-0.3-0.5-0.4-1.1-0.4-1.6c0-0.6,0.1-1.1,0.4-1.6c0.3-0.5,0.7-0.9,1.2-1.2
				C241.6,224.7,242.1,224.6,242.6,224.6 M242.6,225.1c-0.5,0-0.9,0.1-1.3,0.4c-0.4,0.2-0.8,0.6-1,1c-0.2,0.4-0.4,0.9-0.4,1.4
				c0,0.5,0.1,0.9,0.4,1.3c0.2,0.4,0.6,0.8,1,1c0.4,0.2,0.9,0.4,1.3,0.4c0.5,0,0.9-0.1,1.3-0.4c0.4-0.2,0.8-0.6,1-1
				c0.2-0.4,0.4-0.9,0.4-1.3c0-0.5-0.1-0.9-0.4-1.4c-0.2-0.4-0.6-0.8-1-1C243.5,225.2,243.1,225.1,242.6,225.1 M241.2,229.6v-3.5
				h1.2c0.4,0,0.7,0,0.9,0.1c0.2,0.1,0.3,0.2,0.4,0.3c0.1,0.2,0.2,0.3,0.2,0.5c0,0.3-0.1,0.5-0.3,0.7c-0.2,0.2-0.4,0.3-0.7,0.3
				c0.1,0.1,0.2,0.1,0.3,0.2c0.1,0.1,0.3,0.4,0.5,0.7l0.4,0.7h-0.7l-0.3-0.5c-0.2-0.4-0.4-0.7-0.6-0.8c-0.1-0.1-0.3-0.1-0.5-0.1
				h-0.3v1.5L241.2,229.6 M241.8,227.6h0.7c0.3,0,0.5,0,0.7-0.1c0.1-0.1,0.2-0.2,0.2-0.4c0-0.1,0-0.2-0.1-0.3
				c-0.1-0.1-0.1-0.1-0.2-0.2c-0.1,0-0.3-0.1-0.6-0.1h-0.6L241.8,227.6"/>
		</g>
	</g>
</g>
<g id="layer1" transform="matrix(3.4122136,0,0,2.9147516,-1.3007845,49.652982)">
	<g id="g10305">
	</g>
	<g id="g16480">
		<g id="g13802" transform="translate(-13.74405,15.9939)">
			<g id="use14699" transform="translate(845.3001,0)">
			</g>
		</g>
		<g id="g10289">
			<path id="path4157" inkscape:connector-curvature="0" class="st2" d="M27.6,12l0.3-1.8c-0.1,0-0.4,0.1-0.5,0.1
				c-0.7,0-0.8-0.4-0.8-0.7l0.6-3.6h1.1l0.3-2h-1l0.2-1.2h-2.1c0,0-1.2,6.9-1.2,7.8c0,1.2,0.7,1.8,1.7,1.8
				C26.8,12.2,27.4,12,27.6,12z"/>
			<path id="path4155" inkscape:connector-curvature="0" class="st2" d="M28.3,8.6c0,3,2,3.7,3.6,3.7c1.5,0,2.2-0.3,2.2-0.3l0.4-2
				c0,0-1.2,0.5-2.2,0.5c-2.3,0-1.9-1.7-1.9-1.7h4.3c0,0,0.3-1.4,0.3-1.9c0-1.4-0.7-3.1-3-3.1C29.8,3.7,28.3,6,28.3,8.6L28.3,8.6z
				 M32,5.6c1.2,0,1,1.3,1,1.4h-2.3C30.6,6.9,30.8,5.6,32,5.6z"/>
			<path id="path4151" inkscape:connector-curvature="0" class="st2" d="M45.3,12l0.4-2.3c0,0-1,0.5-1.7,0.5c-1.5,0-2.1-1.1-2.1-2.4
				c0-2.5,1.3-3.9,2.7-3.9c1.1,0,1.9,0.6,1.9,0.6l0.3-2.2c0,0-1.3-0.5-2.4-0.5c-2.4,0-4.8,2.1-4.8,6.1c0,2.6,1.3,4.4,3.8,4.4
				C44.2,12.3,45.3,12,45.3,12L45.3,12z"/>
			<path id="path4149" inkscape:connector-curvature="0" class="st2" d="M16,3.7c-1.4,0-2.5,0.5-2.5,0.5L13.2,6c0,0,0.9-0.4,2.3-0.4
				c0.8,0,1.4,0.1,1.4,0.7c0,0.4-0.1,0.5-0.1,0.5s-0.6-0.1-0.9-0.1c-1.8,0-3.7,0.8-3.7,3.1c0,1.8,1.3,2.3,2,2.3c1.5,0,2.1-1,2.2-1
				l-0.1,0.8h1.9l0.8-5.8C18.9,3.8,16.8,3.7,16,3.7z M16.5,8.5c0,0.4-0.2,2-1.5,2c-0.7,0-0.8-0.5-0.8-0.8c0-0.6,0.3-1.3,1.9-1.3
				C16.4,8.4,16.4,8.5,16.5,8.5L16.5,8.5z"/>
			<path id="path4145" inkscape:connector-curvature="0" class="st2" d="M20.9,12.2c0.5,0,3.2,0.1,3.2-2.7c0-2.6-2.5-2.1-2.5-3.1
				c0-0.5,0.4-0.7,1.2-0.7c0.3,0,1.4,0.1,1.4,0.1l0.3-1.9c0,0-0.7-0.2-1.9-0.2c-1.6,0-3.1,0.6-3.1,2.7c0,2.4,2.6,2.2,2.6,3.2
				c0,0.7-0.7,0.7-1.3,0.7c-1,0-1.9-0.3-1.9-0.3l-0.3,1.8C18.6,12,19.1,12.2,20.9,12.2L20.9,12.2z"/>
			<path id="path4139" inkscape:connector-curvature="0" class="st2" d="M62.7,2.1l-0.5,2.8c0,0-0.8-1.1-2-1.1c-1.9,0-3.5,2.3-3.5,5
				c0,1.7,0.9,3.4,2.6,3.4c1.3,0,2-0.9,2-0.9l-0.1,0.8h2l1.6-10L62.7,2.1z M61.7,7.6c0,1.1-0.6,2.6-1.7,2.6c-0.8,0-1.1-0.6-1.1-1.6
				c0-1.6,0.7-2.7,1.7-2.7C61.3,5.8,61.7,6.3,61.7,7.6z"/>
			<path id="path4133" inkscape:connector-curvature="0" class="st2" d="M4.6,12.1l1.3-7.6l0.2,7.6h1.4l2.7-7.6l-1.2,7.6h2.2l1.7-10
				H9.5L7.5,8.2L7.4,2.1H4.3l-1.7,10L4.6,12.1L4.6,12.1z"/>
			<path id="path4131" inkscape:connector-curvature="0" class="st2" d="M37.1,12.1c0.6-3.5,0.7-6.3,2.2-5.8C39.5,5,39.7,4.4,40,3.9
				c0,0-0.1,0-0.4,0c-0.9,0-1.6,1.3-1.6,1.3l0.2-1.2h-2l-1.3,8.2H37.1L37.1,12.1z"/>
			<g id="use8523" transform="translate(847.0062,0)">
				<path id="path4149_1_" inkscape:connector-curvature="0" class="st2" d="M-796.9,3.7c-1.4,0-2.5,0.5-2.5,0.5l-0.3,1.8
					c0,0,0.9-0.4,2.3-0.4c0.8,0,1.4,0.1,1.4,0.7c0,0.4-0.1,0.5-0.1,0.5s-0.6-0.1-0.9-0.1c-1.8,0-3.7,0.8-3.7,3.1
					c0,1.8,1.3,2.3,2,2.3c1.5,0,2.1-1,2.2-1l-0.1,0.8c0,0,1.9,0,1.9,0l0.8-5.8C-794,3.8-796.1,3.7-796.9,3.7L-796.9,3.7z
					 M-796.4,8.5c0,0.4-0.2,2-1.5,2c-0.7,0-0.8-0.5-0.8-0.8c0-0.6,0.3-1.3,1.9-1.3C-796.5,8.4-796.5,8.5-796.4,8.5L-796.4,8.5z"/>
			</g>
			<g id="use8525" transform="translate(442.2857,0)">
				<path id="path4131_1_" inkscape:connector-curvature="0" class="st2" d="M-387.6,12.1c0.6-3.5,0.7-6.3,2.2-5.8
					c0.3-1.3,0.5-1.9,0.8-2.4c0,0-0.1,0-0.4,0c-0.9,0-1.6,1.3-1.6,1.3l0.2-1.2h-2l-1.3,8.2H-387.6L-387.6,12.1z"/>
			</g>
		</g>
	</g>
</g>
</svg>
